<?xml version="1.0" encoding="utf-8"?>
<!-- Generator: Adobe Illustrator 27.5.0, SVG Export Plug-In . SVG Version: 6.00 Build 0)  -->
<svg version="1.1" id="Layer_2" xmlns="http://www.w3.org/2000/svg" xmlns:xlink="http://www.w3.org/1999/xlink" x="0px" y="0px"
	 viewBox="0 0 530.974 506.974" style="enable-background:new 0 0 530.974 506.974;" xml:space="preserve">
<g>
	
		<radialGradient id="SVGID_1_" cx="265.3911" cy="264.8509" r="238.8884" gradientTransform="matrix(1.0557 0 0 1.0446 -13.9359 -21.6742)" gradientUnits="userSpaceOnUse">
		<stop  offset="0" style="stop-color:#F9ED32"/>
		<stop  offset="0.1009" style="stop-color:#F9EE39"/>
		<stop  offset="0.25" style="stop-color:#FAEF4D"/>
		<stop  offset="0.4288" style="stop-color:#FBF26E"/>
		<stop  offset="0.6306" style="stop-color:#FCF69B"/>
		<stop  offset="0.8489" style="stop-color:#FEFBD5"/>
		<stop  offset="0.9946" style="stop-color:#FFFFFF"/>
	</radialGradient>
	<ellipse style="fill:url(#SVGID_1_);" cx="266.237" cy="254.989" rx="255.737" ry="245.988"/>
	
		<radialGradient id="SVGID_00000025422623101414820420000006729975849559339675_" cx="261.1645" cy="1255.9022" r="257.0705" gradientTransform="matrix(0.903 0 0 0.8333 32.5259 -788.3116)" gradientUnits="userSpaceOnUse">
		<stop  offset="0" style="stop-color:#FF7F0A"/>
		<stop  offset="0.155" style="stop-color:#FF840A"/>
		<stop  offset="0.3384" style="stop-color:#FF920C"/>
		<stop  offset="0.5363" style="stop-color:#FFAA0E"/>
		<stop  offset="0.7443" style="stop-color:#FFCB11"/>
		<stop  offset="0.9583" style="stop-color:#FFF615"/>
		<stop  offset="1" style="stop-color:#FFFF16"/>
	</radialGradient>
	<path style="fill:url(#SVGID_00000025422623101414820420000006729975849559339675_);" d="M234.527,38.535
		c0.27,12.992-0.407,26.21-4.025,38.752c-3.171,10.991-13.043,25.725-25.901,24.569c-7.101-0.639-20.601-40.776-19.7-47.611
		c-14.5,26.877-2.534,61.907,6.357,70.124c-15.831-0.657-36.185-12.375-47.751-25.532c2.394,9.161,2.894,27.768,19.39,38.035
		c-22.492,15.453-56.596-44.078-51.82-52.32c-8.909,15.371-36.176,52.39,4.018,93.383c-6.655,5.477-39.694,6.558-63.194-9.465
		c3.5,17.056,15,33.596,31.243,39.679c12.835,4.807,24.853,3.061,37.883,4.292c-4.617,14.259-57.959,60.263-94.626,27.872
		c13.333,38.593,57.5,57.888,74.352,52.732c5.261-1.61,4.212,2.609,1.148,6.707c-1.831,2.45-4.038,5.174-6.391,7.133
		c-20.609,17.159-56.928,7.579-67.109-2.481c29.085,43.357,78.559,28.735,86.666,25.499c-7.333,46.861-57.999,77.184-81.999,72.359
		c39.014,25.052,92.666,10.337,108.667-22.052c13.367,52.75-16.69,62.287-27.834,70.464c39.075,13.341,73.5-2.067,94.131-38.951
		c12.369,19.31,6.893,45.614,1.021,53.403C239.4,453.773,243.5,431,242.333,411.833c6.761,4.311,31.567,32.638,14.487,76.368
		c39.58-18.922,48.418-73.028,41.58-79.394c47.195-10.77,58,56.337,33.392,76.842c64.608-12.752,63.608-76.842,42.504-103.125
		c14.672,9.397,87.612,30.007,106.104-25.402c-10.918,9.641-39.452,3.612-50-12.922c17.601-4.528,72-21.708,79.914-75.212
		c-26.414,25.594-50.914,33.864-56.06,17.545c9.264-10.076,42.146-29.681,48.813-93.771c-27.333,32.39-65.757,26.177-72,12.405
		c3.177,0.242,42-19.296,50.667-57.888c-20.722,11.038-61.271,26.096-70.834-3.101c-6.48-19.79,18.521-47.125,30.747-56.1
		c-30.435,1.918-45.849,21.159-62.873,43.633c-4.604-9.126-2.384-23.329-1.143-33.65c1.244-10.35,7.857-20.034,14.728-27.36
		c6.179-6.588,13.575-15.955,21.341-20.606c-4.51-1.601-20.535,6.505-24.525,8.148c-13.231,5.45-26.061,12.427-36.327,22.902
		c-5.997,6.123-11.663,12.547-16.027,20.042c-2.594,4.457-9.505,14.457-17.419,7.844c-4.646-3.883,11.26-59.744,19.332-66.061
		c-40.832,9.724-61.685,42.199-66.332,57.792c0.962-41.37-8.564-51.74-39.849-72.5C233.924,29.173,234.423,33.492,234.527,38.535z"
		/>
	
		<radialGradient id="SVGID_00000018203856398268309820000018110057845827098245_" cx="271.7898" cy="1260.0444" r="206.4586" gradientTransform="matrix(1 0 0 0.9203 0 -901.2029)" gradientUnits="userSpaceOnUse">
		<stop  offset="0" style="stop-color:#FF510A"/>
		<stop  offset="0.151" style="stop-color:#FF560A"/>
		<stop  offset="0.3297" style="stop-color:#FF640C"/>
		<stop  offset="0.5224" style="stop-color:#FF7C0E"/>
		<stop  offset="0.725" style="stop-color:#FF9D11"/>
		<stop  offset="0.9334" style="stop-color:#FFC815"/>
		<stop  offset="1" style="stop-color:#FFD716"/>
	</radialGradient>
	<path style="fill:url(#SVGID_00000018203856398268309820000018110057845827098245_);" d="M355.405,463.457
		c-0.242-21.717-1.857-45.749-21.239-59.469c-10.685-7.552-32.12-14.165-44.638-7.658c-15.05,7.823-1.916,19.011-1.646,30.591
		c0.289,12.425-4.986,21.476-14.401,31.617c-5.585-26.142-13.36-50.773-39.585-60.142c6.413,2.316,0,34-8,43
		c-9-42-21.898-47.4-36.684-26.662c-23.19,32.527-46.793,28.939-46.793,28.939c10.739-11.818,28.331-37.335,19.477-72.277
		c0,0-7.045-10.971-14.523-3.485c-7.477,7.485-46.43,35.267-70.361,35.267c-0.756,0-1.509-0.012-2.26-0.034
		c5.576-3.222,11.048-7.053,16.186-11.392c10.871-9.183,19.95-20.802,25.25-34.209c5.602-14.171,5.4-29.878,10.999-44.047
		c-10.992,0.462-22.417,5.58-32.974,8.806c10.373-3.915,29.454-22.894,20.649-35.115c-5.938-8.244-20.849-4.331-29.513-6.518
		c-5.279-1.333-10.364-3.758-15.094-6.415c-4.597-2.587-8.511-6.921-12.71-10.096c21.407-7.139,39.301-10.27,57.383-26.1
		c6.498-5.688,17.195-13.906,19.21-22.723c3.644-15.951-16.098-13.383-26.939-14.148c-5.261-0.371-10.625-0.75-15.698-2.313
		c-3.855-1.188-7.752-4.315-11.079-6.521c20.096-1.36,34.881,0.403,51.736-13.479c-2.096,1.726-21.508-26.074-22.899-29.043
		c-5.152-11.001-7.326-24.358-0.257-35.081c-2.305,3.496,25.47,29.201,29.252,31.469c17.251,10.347,28.036-0.258,44.339-6.031
		c10.025-3.55,20.727-2.726,30.765-5.229c-4.289-5.043-9.772-22.46-16.624-23.586c35.7,5.865,45.703-28.416,49.154-57.998
		c0,0,5.178-0.699,15.556,32.861c4.178,13.513,10.634,26.461,25.575,10.768c10.502-11.029,15.299-22.63,28.726-31.885
		c-10.429,12.044-15.728,52.739,4.943,58.201c21.89,5.784,30.246-31.264,46.77-38.553c1.01,7.225-1.749,15.453-2.332,22.888
		c-1.322,16.876,3.564,30.703,11.647,45.205c6.872-6.558,23.368-20.031,24.386-30.303c-3.74,37.769,19.806,53.632,56.165,47.349
		c-8.642,1.493-23.507,16.098-31.022,21.231c-11.983,8.184-8.248,15.72,1.902,25.193c7.557,7.048,17.704,11.745,28.15,11.745
		c10.15,0,20.26-2.514,29.679-7.216c-4.27,14.011-11.031,27.678-20.786,38.713c-7.532,8.521-23.858,17.06-22.729,30.35
		c1.504,17.698,26.375,17.047,38.674,13.65c-13.296,15.567-34.099,24.252-53.521,29.252c-5.186,1.335-10.371,2.669-15.558,4.003
		c11.531,18.075,22.145,30.506,44.108,35.959c-15.883,13.983-36.915,8.727-55.502,5.044c-13.277-2.631-32.717-5.962-33.38,13.156
		C366.605,412.205,393.158,424.546,355.405,463.457z"/>
	<g>
		<path style="fill:#C13025;" d="M118.502,311.615l13.055-7.038c-10.376-8.88-20.598-18.862-23.659-23.002
			c4.993-5.288,28.108-21.04,48.529-33.793l-16.309-13.075c-52.595,32.838-53.033,38.324-53.199,40.391
			C86.745,277.3,86.21,283.997,118.502,311.615z"/>
	</g>
	<g>
		<path style="fill:#C13025;" d="M428.454,310.441l-13.056-7.038c10.376-8.88,20.598-18.862,23.659-23.002
			c-4.994-5.288-28.108-21.04-48.529-33.793l16.309-13.075c52.596,32.838,53.033,38.324,53.199,40.391
			C460.212,276.126,460.746,282.823,428.454,310.441z"/>
	</g>
	<g>
		<circle style="fill:#FFDE17;" cx="274.154" cy="249.403" r="134.667"/>
		
			<radialGradient id="SVGID_00000115487904846311966810000007631264931008707462_" cx="274.1545" cy="249.4033" r="130.9999" gradientUnits="userSpaceOnUse">
			<stop  offset="0" style="stop-color:#F9ED32"/>
			<stop  offset="0.2322" style="stop-color:#F9E931"/>
			<stop  offset="0.4381" style="stop-color:#F9DF2F"/>
			<stop  offset="0.6341" style="stop-color:#F8CD2B"/>
			<stop  offset="0.8227" style="stop-color:#F8B325"/>
			<stop  offset="1" style="stop-color:#F7941E"/>
		</radialGradient>
		<circle style="fill:url(#SVGID_00000115487904846311966810000007631264931008707462_);" cx="274.154" cy="249.403" r="131"/>
		
			<linearGradient id="SVGID_00000078033137736633264750000017040536119336838016_" gradientUnits="userSpaceOnUse" x1="274.1545" y1="146.4037" x2="274.1545" y2="235.4932">
			<stop  offset="0" style="stop-color:#BCBABB"/>
			<stop  offset="1" style="stop-color:#231F20"/>
		</linearGradient>
		
			<ellipse style="fill:url(#SVGID_00000078033137736633264750000017040536119336838016_);" cx="274.154" cy="202.403" rx="100" ry="73"/>
	</g>
	
		<radialGradient id="SVGID_00000013881161784783069600000018346769628657282714_" cx="257.3985" cy="295.4033" r="30.806" gradientUnits="userSpaceOnUse">
		<stop  offset="0" style="stop-color:#F15A29"/>
		<stop  offset="0.2818" style="stop-color:#F15E28"/>
		<stop  offset="0.5316" style="stop-color:#F26826"/>
		<stop  offset="0.7685" style="stop-color:#F47A23"/>
		<stop  offset="0.9975" style="stop-color:#F7941E"/>
		<stop  offset="1" style="stop-color:#F7941E"/>
	</radialGradient>
	<path style="fill:url(#SVGID_00000013881161784783069600000018346769628657282714_);" d="M260.119,274.943
		c-11.829,10.371-20.365,27.25-14.945,30.685c20.271,12.845,66.743-19.781,39.913-36.788
		C277.419,263.98,268.031,268.007,260.119,274.943z"/>
	<g>
		
			<radialGradient id="SVGID_00000140694967059303542750000003531531112004081045_" cx="239.5693" cy="304.4781" r="11.5768" gradientUnits="userSpaceOnUse">
			<stop  offset="0" style="stop-color:#F15A29"/>
			<stop  offset="0.2818" style="stop-color:#F15E28"/>
			<stop  offset="0.5316" style="stop-color:#F26826"/>
			<stop  offset="0.7685" style="stop-color:#F47A23"/>
			<stop  offset="0.9975" style="stop-color:#F7941E"/>
			<stop  offset="1" style="stop-color:#F7941E"/>
		</radialGradient>
		<path style="fill:url(#SVGID_00000140694967059303542750000003531531112004081045_);" d="M245.354,318.358
			c-3.991,0.001-8.534-2.226-11.335-5.814c-2.634-3.374-5.986-10.712,1.163-21.947l2.531,1.611c-6.16,9.68-3.477,15.739-1.33,18.489
			c3.065,3.926,8.055,5.324,10.92,4.369l0.948,2.846C247.346,318.215,246.368,318.358,245.354,318.358z"/>
	</g>
	<g>
		<path style="fill:#B0221F;" d="M232.503,195.299c-4.427-4.095-10.029-8.059-15.522-10.529c-5.882-2.646-12.472-3.346-18.791-4.236
			c-3.753-0.529-5.371,5.206-1.582,5.74c5.119,0.722,10.211,1.433,15.186,2.889c5.848,1.713,12.072,6.25,16.501,10.346
			C231.107,202.11,235.327,197.91,232.503,195.299z"/>
		<path style="fill:#B0221F;" d="M228.295,194.427c-6.393,0.01-12.965,0.348-19.166,1.854c-6.954,1.688-12.975,6.305-19.077,9.552
			c-3.661,1.948-0.343,7.096,3.331,5.141c5.01-2.667,9.745-5.73,14.963-8.068c5.771-2.585,13.652-2.516,19.949-2.525
			C232.551,200.373,232.551,194.42,228.295,194.427z"/>
	</g>
	<g>
		<path style="fill:#B0221F;" d="M310.729,195.299c4.427-4.095,10.029-8.059,15.521-10.529c5.883-2.646,12.473-3.346,18.791-4.236
			c3.754-0.529,5.371,5.206,1.583,5.74c-5.12,0.722-10.212,1.433-15.185,2.889c-5.848,1.713-12.073,6.25-16.501,10.346
			C312.123,202.11,307.904,197.91,310.729,195.299z"/>
		<path style="fill:#B0221F;" d="M314.936,194.427c6.393,0.01,12.965,0.348,19.166,1.854c6.955,1.688,12.975,6.305,19.078,9.552
			c3.66,1.948,0.343,7.096-3.331,5.141c-5.011-2.667-9.744-5.73-14.964-8.068c-5.77-2.585-13.651-2.516-19.949-2.525
			C310.68,200.373,310.68,194.42,314.936,194.427z"/>
	</g>
	
		<radialGradient id="SVGID_00000137131787373373020740000009791596645090939269_" cx="207.5257" cy="12168.1377" r="50.2162" gradientTransform="matrix(0.9918 -0.1277 0.0567 0.4402 -689.2613 -5085.0664)" gradientUnits="userSpaceOnUse">
		<stop  offset="0" style="stop-color:#F7941E"/>
		<stop  offset="0.1122" style="stop-color:#F79623"/>
		<stop  offset="0.245" style="stop-color:#F89D31"/>
		<stop  offset="0.3883" style="stop-color:#F9A949"/>
		<stop  offset="0.539" style="stop-color:#FAB86B"/>
		<stop  offset="0.6956" style="stop-color:#FBCD95"/>
		<stop  offset="0.8545" style="stop-color:#FDE5C9"/>
		<stop  offset="1" style="stop-color:#FFFFFF"/>
	</radialGradient>
	<path style="fill:url(#SVGID_00000137131787373373020740000009791596645090939269_);" d="M268.882,236.816
		c2.538,19.723-23.336,39.3-57.791,43.735c-34.454,4.434-64.441-7.953-66.98-27.675c-2.538-19.718,23.336-39.299,57.789-43.734
		C236.354,204.707,266.344,217.099,268.882,236.816z"/>
	
		<radialGradient id="SVGID_00000085942451619195823370000008693464345088099994_" cx="339.4297" cy="12281.1865" r="50.22" gradientTransform="matrix(0.9561 0.293 -0.13 0.4243 1611.5229 -5060.5132)" gradientUnits="userSpaceOnUse">
		<stop  offset="0" style="stop-color:#F7941E"/>
		<stop  offset="0.1122" style="stop-color:#F79623"/>
		<stop  offset="0.245" style="stop-color:#F89D31"/>
		<stop  offset="0.3883" style="stop-color:#F9A949"/>
		<stop  offset="0.539" style="stop-color:#FAB86B"/>
		<stop  offset="0.6956" style="stop-color:#FBCD95"/>
		<stop  offset="0.8545" style="stop-color:#FDE5C9"/>
		<stop  offset="1" style="stop-color:#FFFFFF"/>
	</radialGradient>
	<path style="fill:url(#SVGID_00000085942451619195823370000008693464345088099994_);" d="M399.637,268.277
		c-5.827,19.013-37.475,26.167-70.689,15.988c-33.213-10.181-55.416-33.838-49.589-52.85c5.825-19.008,37.474-26.167,70.686-15.987
		C383.259,225.606,405.462,249.27,399.637,268.277z"/>
	<g>
		<path style="fill:#E1E1DF;" d="M132.896,283.186c3.793,2.695,11.435,9.171,11.435,9.171s-3.721,17.672,8.494,21.342
			c12.214,3.668,51.099,2.91,49.614,8.814c-1.484,5.905-9.568,7.638-21.525,2.135c-7.833,2.993-14.093,11.173-20.012,15.876
			c-7.491,5.954-22.787,7.438-29.579-0.491c-2.482-2.897-3.107-6.777-4.142-10.319c-5.729-4.766-20.189-15.946-20.189-15.946
			s-5.573-8.414,8.188-22.294C125.206,281.36,132.896,283.186,132.896,283.186z"/>
		<path style="fill:#F0F4F7;" d="M134.9,331.093c-1.888-1.167-6.687-5.624-4.667-14.833c2.02-9.208,9.398-13.815,11.637-19.216
			c2.239-5.403,8.528-22.678,12.269-27.255c3.743-4.58,9.554-4.729,13.298-6.034c3.747-1.302,10.55-6.424,24.914-6.513
			c14.364-0.093,19.586,2.158,22.057,4.018c4.94,3.718,1.174,11.029-4.809,11.37c3.899,1.414,8.304,2.071,9.189,8.022
			c1.333,8.983-3.351,11.468-14.492,10.649c8.987,1.309,11.317,3.902,11.405,8.625c0.09,4.726-2.482,10.691-13.07,10.024
			l-9.127-0.573c0,0,13.762,2.127,12.981,10.719c-0.783,8.595-8.924,8.959-16.299,7.661c-9.37-1.648-13.159-7.281-21.471-3.325
			C141.797,337.247,136.786,332.256,134.9,331.093z"/>
		<path style="fill:#E1E1DF;" d="M166.502,279.242c5.807-3.685,11.818-6.972,18.695-8.122c8.611-1.445,17.163-0.408,25.737,0.75
			c1.381,0.19,0.921,2.302-0.456,2.115c-7.15-0.967-14.259-1.809-21.481-1.241c-7.86,0.619-14.766,4.152-21.3,8.303
			C166.521,281.792,165.324,279.99,166.502,279.242z"/>
		<path style="fill:#E1E1DF;" d="M173.05,293.858c11.387-4.643,22.771-4.223,34.843-3.298c1.367,0.104,1.511,2.263,0.123,2.156
			c-11.838-0.902-23.072-1.377-34.273,3.191C172.45,296.435,171.766,294.381,173.05,293.858z"/>
		<path style="fill:#E1E1DF;" d="M176.316,309.679c7.296-1.452,14.821-1.904,22.17-0.9c1.381,0.191,0.92,2.303-0.454,2.115
			c-6.881-0.941-14.182-0.527-21.023,0.834C175.659,311.997,174.953,309.95,176.316,309.679z"/>
	</g>
	<g>
		<path style="fill:#E1E1DF;" d="M414.061,282.013c-3.793,2.695-11.436,9.171-11.436,9.171s3.721,17.672-8.494,21.342
			c-12.214,3.668-51.099,2.91-49.614,8.814c1.484,5.905,9.568,7.638,21.525,2.135c7.833,2.993,14.094,11.173,20.012,15.876
			c7.491,5.954,22.788,7.438,29.58-0.491c2.482-2.897,3.107-6.777,4.141-10.319c5.729-4.766,20.19-15.946,20.19-15.946
			s5.574-8.414-8.188-22.294C421.75,280.186,414.061,282.013,414.061,282.013z"/>
		<path style="fill:#F0F4F7;" d="M412.056,329.919c1.889-1.167,6.688-5.624,4.667-14.833c-2.021-9.208-9.398-13.815-11.637-19.216
			c-2.239-5.403-8.528-22.678-12.268-27.255c-3.744-4.58-9.555-4.729-13.299-6.034c-3.746-1.302-10.551-6.424-24.914-6.513
			c-14.363-0.093-19.586,2.158-22.057,4.018c-4.94,3.718-1.174,11.029,4.809,11.37c-3.899,1.414-8.304,2.071-9.188,8.022
			c-1.333,8.983,3.35,11.468,14.492,10.649c-8.987,1.309-11.317,3.902-11.405,8.625c-0.09,4.726,2.482,10.691,13.07,10.025
			l9.127-0.573c0,0-13.762,2.127-12.98,10.719c0.783,8.595,8.924,8.959,16.299,7.661c9.37-1.648,13.16-7.281,21.471-3.325
			C405.159,336.073,410.171,331.082,412.056,329.919z"/>
		<path style="fill:#E1E1DF;" d="M380.454,278.068c-5.808-3.685-11.818-6.972-18.695-8.122c-8.611-1.445-17.163-0.408-25.737,0.75
			c-1.381,0.19-0.921,2.302,0.456,2.115c7.15-0.967,14.259-1.809,21.48-1.241c7.86,0.619,14.766,4.152,21.301,8.303
			C380.436,280.618,381.632,278.816,380.454,278.068z"/>
		<path style="fill:#E1E1DF;" d="M373.906,292.685c-11.387-4.643-22.771-4.223-34.843-3.298c-1.367,0.105-1.511,2.263-0.123,2.156
			c11.838-0.902,23.072-1.377,34.273,3.191C374.507,295.261,375.19,293.207,373.906,292.685z"/>
		<path style="fill:#E1E1DF;" d="M370.64,308.505c-7.295-1.452-14.82-1.904-22.17-0.9c-1.381,0.19-0.92,2.303,0.454,2.115
			c6.882-0.941,14.182-0.527,21.023,0.834C371.298,310.823,372.003,308.776,370.64,308.505z"/>
	</g>
	<g>
		<g>
			<defs>
				<path id="SVGID_00000020381695627545147480000003750046472626223531_" d="M250.862,176.44
					c-7.467-2.898-29.868-16.382-70.242-15.766c-21.036,0.32-34.611,4.501-34.611,4.501s-4.939,11.015-3.514,26.174
					c1.032,10.986,4.785,36.163,34.157,43.825c17.629,4.597,35.445,2.471,42.993-0.188c12.768-4.494,26.094-12.571,30.878-33.132
					C253.913,187.287,250.862,176.44,250.862,176.44z"/>
			</defs>
			<use xlink:href="#SVGID_00000020381695627545147480000003750046472626223531_"  style="overflow:visible;fill:#808285;"/>
			<clipPath id="SVGID_00000060006129496499462460000013662814328701229452_">
				<use xlink:href="#SVGID_00000020381695627545147480000003750046472626223531_"  style="overflow:visible;"/>
			</clipPath>
			
				<linearGradient id="SVGID_00000169537597454720679960000010255840426304977584_" gradientUnits="userSpaceOnUse" x1="331.3745" y1="-14.3831" x2="493.7567" y2="-14.3831" gradientTransform="matrix(0.4028 -0.9153 0.9153 0.4028 80.1319 512.3895)">
				<stop  offset="0" style="stop-color:#A7A9AC"/>
				<stop  offset="0.0204" style="stop-color:#97999B"/>
				<stop  offset="0.0714" style="stop-color:#737577"/>
				<stop  offset="0.1289" style="stop-color:#545557"/>
				<stop  offset="0.1924" style="stop-color:#3A3A3B"/>
				<stop  offset="0.2641" style="stop-color:#242525"/>
				<stop  offset="0.3478" style="stop-color:#141414"/>
				<stop  offset="0.4514" style="stop-color:#080909"/>
				<stop  offset="0.5967" style="stop-color:#020202"/>
				<stop  offset="1" style="stop-color:#000000"/>
			</linearGradient>
			
				<path style="clip-path:url(#SVGID_00000060006129496499462460000013662814328701229452_);fill:url(#SVGID_00000169537597454720679960000010255840426304977584_);" d="
				M142.424,166.028c10.271,32.02,127.934,63.627,159.72,2.45c31.799-61.172-32.905-117.146-71.673-128.71
				C191.699,28.217,132.151,134.008,142.424,166.028z"/>
		</g>
		<g>
			<path style="fill:#DB0304;" d="M264.765,171.112c-9.367-3.831-37.466-21.675-88.116-20.86
				c-26.391,0.428-43.417,5.959-43.417,5.959l-15.325,0.428v19.155l10.216,6.384c0,0,0.237,37.706,22.559,57.466
				c20.436,18.09,59.708,14.375,74.921,8.939c11.92-4.258,30.646-17.238,38.732-43.844c3.913-12.881,4.258-12.771,4.258-12.771
				h5.959v-20.856H264.765z M250.523,201.855c-4.784,20.561-18.11,28.638-30.878,33.132c-7.548,2.658-25.363,4.784-42.993,0.188
				c-29.372-7.662-33.125-32.839-34.157-43.825c-1.425-15.159,3.514-26.174,3.514-26.174s13.575-4.181,34.611-4.501
				c40.374-0.616,62.775,12.867,70.242,15.766C250.862,176.44,253.913,187.287,250.523,201.855z"/>
			
				<radialGradient id="SVGID_00000139283129990971192480000006055783475558959021_" cx="189.7168" cy="156.2279" r="47.9587" gradientTransform="matrix(1 0 0 0.8587 0 26.7302)" gradientUnits="userSpaceOnUse">
				<stop  offset="0.0054" style="stop-color:#FBCACE"/>
				<stop  offset="0.1088" style="stop-color:#F9BFC2"/>
				<stop  offset="0.2939" style="stop-color:#F4A0A4"/>
				<stop  offset="0.5389" style="stop-color:#EC6F72"/>
				<stop  offset="0.8314" style="stop-color:#E22C2D"/>
				<stop  offset="0.9946" style="stop-color:#DB0304"/>
			</radialGradient>
			<path style="fill:url(#SVGID_00000139283129990971192480000006055783475558959021_);" d="M255.842,167.798
				c-20.737-6.259-41.881-12.778-63.766-15.225c-23.362-2.611-45.715,1.94-68.441,5.903c-1.601,0.28-0.92,2.376,0.674,2.1
				c21.839-3.811,42.961-7.862,65.403-6.056c22.387,1.801,44.382,9.015,65.456,15.375
				C256.715,170.362,257.372,168.258,255.842,167.798z"/>
			
				<radialGradient id="SVGID_00000023991396808541769810000002049953079589068724_" cx="146.5963" cy="201.336" r="18.3017" gradientUnits="userSpaceOnUse">
				<stop  offset="0.0054" style="stop-color:#FBCACE"/>
				<stop  offset="0.1088" style="stop-color:#F9BFC2"/>
				<stop  offset="0.2939" style="stop-color:#F4A0A4"/>
				<stop  offset="0.5389" style="stop-color:#EC6F72"/>
				<stop  offset="0.8314" style="stop-color:#E22C2D"/>
				<stop  offset="0.9946" style="stop-color:#DB0304"/>
			</radialGradient>
			<path style="fill:url(#SVGID_00000023991396808541769810000002049953079589068724_);" d="M143.926,206.654
				c-3.874-10.252-3.193-21.71-3.929-30.17c-0.635,8.779-1.349,19.091,0.896,27.615c1.816,6.889,5.746,15.325,12.933,22.088
				C153.98,225.859,147.382,215.801,143.926,206.654z"/>
			
				<radialGradient id="SVGID_00000174603415072949963020000009304207744562956681_" cx="143.7161" cy="166.2201" r="5.3969" gradientUnits="userSpaceOnUse">
				<stop  offset="0.0054" style="stop-color:#FBCACE"/>
				<stop  offset="0.1088" style="stop-color:#F9BFC2"/>
				<stop  offset="0.2939" style="stop-color:#F4A0A4"/>
				<stop  offset="0.5389" style="stop-color:#EC6F72"/>
				<stop  offset="0.8314" style="stop-color:#E22C2D"/>
				<stop  offset="0.9946" style="stop-color:#DB0304"/>
			</radialGradient>
			<path style="fill:url(#SVGID_00000174603415072949963020000009304207744562956681_);" d="M146.623,160.098
				c-2.038,0.778-4.116,1.626-5.56,3.327c-1.784,2.101-0.909,5.022-1.712,7.455c-0.513,1.557,1.937,2.217,2.445,0.674
				c0.604-1.831,0.369-3.73,0.736-5.602c0.371-1.894,3.232-2.826,4.763-3.409C148.807,161.966,148.15,159.515,146.623,160.098z"/>
			
				<radialGradient id="SVGID_00000065767534004991436880000006602081555046844817_" cx="230.6685" cy="226.1389" r="20.3755" gradientUnits="userSpaceOnUse">
				<stop  offset="0.0054" style="stop-color:#FBCACE"/>
				<stop  offset="0.1088" style="stop-color:#F9BFC2"/>
				<stop  offset="0.2939" style="stop-color:#F4A0A4"/>
				<stop  offset="0.5389" style="stop-color:#EC6F72"/>
				<stop  offset="0.8314" style="stop-color:#E22C2D"/>
				<stop  offset="0.9946" style="stop-color:#DB0304"/>
			</radialGradient>
			<path style="fill:url(#SVGID_00000065767534004991436880000006602081555046844817_);" d="M254.605,210.235
				c-0.048,0.01-0.097,0.025-0.143,0.039c-1.269,0.442-3.453,4.333-4.263,5.413c-3.267,4.34-6.254,8.872-10.302,12.559
				c-8.991,8.188-16.957,11.61-33.257,13.581c7.359,0.902,22.364-0.694,33.612-10.41
				C246.713,225.834,255.691,209.966,254.605,210.235z"/>
			<g>
				<path style="fill:#FFFFFF;" d="M132.116,167.065c0,1.103-1.786,1.997-3.991,1.997c-2.205,0-3.991-0.895-3.991-1.997
					c0-1.102,1.786-1.995,3.991-1.995C130.33,165.07,132.116,165.964,132.116,167.065z"/>
			</g>
		</g>
		<g>
			<defs>
				<path id="SVGID_00000016036460620039682260000017330753498672068266_" d="M297.449,176.44
					c7.466-2.898,29.864-16.382,70.241-15.766c21.036,0.32,34.61,4.501,34.61,4.501s4.939,11.015,3.516,26.174
					c-1.033,10.986-4.787,36.163-34.159,43.825c-17.628,4.597-35.443,2.471-42.991-0.188c-12.769-4.494-26.094-12.571-30.877-33.132
					C294.398,187.287,297.449,176.44,297.449,176.44z"/>
			</defs>
			<use xlink:href="#SVGID_00000016036460620039682260000017330753498672068266_"  style="overflow:visible;fill:#808285;"/>
			<clipPath id="SVGID_00000136380614077944265480000013282816002803927209_">
				<use xlink:href="#SVGID_00000016036460620039682260000017330753498672068266_"  style="overflow:visible;"/>
			</clipPath>
			
				<linearGradient id="SVGID_00000072967443923813516130000006998486864772654226_" gradientUnits="userSpaceOnUse" x1="462.4265" y1="283.4127" x2="624.8082" y2="283.4127" gradientTransform="matrix(-0.4028 -0.9153 -0.9153 0.4028 793.5371 512.3895)">
				<stop  offset="0" style="stop-color:#A7A9AC"/>
				<stop  offset="0.0204" style="stop-color:#97999B"/>
				<stop  offset="0.0714" style="stop-color:#737577"/>
				<stop  offset="0.1289" style="stop-color:#545557"/>
				<stop  offset="0.1924" style="stop-color:#3A3A3B"/>
				<stop  offset="0.2641" style="stop-color:#242525"/>
				<stop  offset="0.3478" style="stop-color:#141414"/>
				<stop  offset="0.4514" style="stop-color:#080909"/>
				<stop  offset="0.5967" style="stop-color:#020202"/>
				<stop  offset="1" style="stop-color:#000000"/>
			</linearGradient>
			
				<path style="clip-path:url(#SVGID_00000136380614077944265480000013282816002803927209_);fill:url(#SVGID_00000072967443923813516130000006998486864772654226_);" d="
				M405.885,166.028c-10.271,32.02-127.932,63.627-159.72,2.45c-31.798-61.172,32.907-117.146,71.675-128.71
				C356.61,28.217,416.157,134.008,405.885,166.028z"/>
		</g>
		<g>
			<path style="fill:#DB0304;" d="M273.759,171.112v20.856h5.958c0,0,0.343-0.11,4.256,12.771
				c8.086,26.605,26.814,39.586,38.735,43.844c15.211,5.436,54.484,9.15,74.919-8.939c22.322-19.76,22.561-57.466,22.561-57.466
				l10.215-6.384v-19.155l-15.323-0.428c0,0-17.026-5.531-43.42-5.959c-50.649-0.814-78.748,17.029-88.112,20.86H273.759z
				 M297.449,176.44c7.466-2.898,29.864-16.382,70.241-15.766c21.036,0.32,34.61,4.501,34.61,4.501s4.939,11.015,3.516,26.174
				c-1.033,10.986-4.787,36.163-34.159,43.825c-17.628,4.597-35.443,2.471-42.991-0.188c-12.769-4.494-26.094-12.571-30.877-33.132
				C294.398,187.287,297.449,176.44,297.449,176.44z"/>
			
				<radialGradient id="SVGID_00000086678750041916903060000016525734073496977058_" cx="515.0755" cy="156.2279" r="47.959" gradientTransform="matrix(-1 0 0 0.8587 873.668 26.7302)" gradientUnits="userSpaceOnUse">
				<stop  offset="0.0054" style="stop-color:#FBCACE"/>
				<stop  offset="0.1066" style="stop-color:#F9BFC2"/>
				<stop  offset="0.2876" style="stop-color:#F4A0A4"/>
				<stop  offset="0.5273" style="stop-color:#EC6F72"/>
				<stop  offset="0.8135" style="stop-color:#E22C2D"/>
				<stop  offset="0.9731" style="stop-color:#DB0304"/>
			</radialGradient>
			<path style="fill:url(#SVGID_00000086678750041916903060000016525734073496977058_);" d="M292.467,167.798
				c20.739-6.259,41.882-12.778,63.768-15.225c23.361-2.611,45.714,1.94,68.44,5.903c1.601,0.28,0.918,2.376-0.673,2.1
				c-21.841-3.811-42.963-7.862-65.404-6.056c-22.387,1.801-44.384,9.015-65.455,15.375
				C291.594,170.362,290.936,168.258,292.467,167.798z"/>
			
				<radialGradient id="SVGID_00000076579334391039688010000012376529800044856504_" cx="471.9543" cy="201.336" r="18.3016" gradientTransform="matrix(-1 0 0 1 873.668 0)" gradientUnits="userSpaceOnUse">
				<stop  offset="0.0054" style="stop-color:#FBCACE"/>
				<stop  offset="0.1066" style="stop-color:#F9BFC2"/>
				<stop  offset="0.2876" style="stop-color:#F4A0A4"/>
				<stop  offset="0.5273" style="stop-color:#EC6F72"/>
				<stop  offset="0.8135" style="stop-color:#E22C2D"/>
				<stop  offset="0.9731" style="stop-color:#DB0304"/>
			</radialGradient>
			<path style="fill:url(#SVGID_00000076579334391039688010000012376529800044856504_);" d="M404.385,206.654
				c3.873-10.252,3.192-21.71,3.929-30.17c0.634,8.779,1.348,19.091-0.897,27.615c-1.816,6.889-5.745,15.325-12.933,22.088
				C394.33,225.859,400.928,215.801,404.385,206.654z"/>
			
				<radialGradient id="SVGID_00000106122987916465356250000006145646986118340745_" cx="469.0749" cy="166.2201" r="5.3969" gradientTransform="matrix(-1 0 0 1 873.668 0)" gradientUnits="userSpaceOnUse">
				<stop  offset="0.0054" style="stop-color:#FBCACE"/>
				<stop  offset="0.1066" style="stop-color:#F9BFC2"/>
				<stop  offset="0.2876" style="stop-color:#F4A0A4"/>
				<stop  offset="0.5273" style="stop-color:#EC6F72"/>
				<stop  offset="0.8135" style="stop-color:#E22C2D"/>
				<stop  offset="0.9731" style="stop-color:#DB0304"/>
			</radialGradient>
			<path style="fill:url(#SVGID_00000106122987916465356250000006145646986118340745_);" d="M401.688,160.098
				c2.037,0.778,4.116,1.626,5.56,3.327c1.784,2.101,0.909,5.022,1.711,7.455c0.515,1.557-1.936,2.217-2.444,0.674
				c-0.604-1.831-0.37-3.73-0.735-5.602c-0.371-1.894-3.233-2.826-4.764-3.409C399.502,161.966,400.159,159.515,401.688,160.098z"/>
			
				<radialGradient id="SVGID_00000163074171565680299200000004395002191180158094_" cx="556.0274" cy="226.1389" r="20.3758" gradientTransform="matrix(-1 0 0 1 873.668 0)" gradientUnits="userSpaceOnUse">
				<stop  offset="0.0054" style="stop-color:#FBCACE"/>
				<stop  offset="0.1066" style="stop-color:#F9BFC2"/>
				<stop  offset="0.2876" style="stop-color:#F4A0A4"/>
				<stop  offset="0.5273" style="stop-color:#EC6F72"/>
				<stop  offset="0.8135" style="stop-color:#E22C2D"/>
				<stop  offset="0.9731" style="stop-color:#DB0304"/>
			</radialGradient>
			<path style="fill:url(#SVGID_00000163074171565680299200000004395002191180158094_);" d="M293.703,210.235
				c0.048,0.01,0.097,0.025,0.142,0.039c1.271,0.442,3.454,4.333,4.267,5.413c3.264,4.34,6.253,8.872,10.301,12.559
				c8.989,8.188,16.958,11.61,33.256,13.581c-7.36,0.902-22.366-0.694-33.611-10.41
				C301.596,225.834,292.617,209.966,293.703,210.235z"/>
			<g>
				<path style="fill:#FFFFFF;" d="M416.193,167.065c0,1.103,1.786,1.997,3.989,1.997c2.205,0,3.992-0.895,3.992-1.997
					c0-1.102-1.787-1.995-3.992-1.995C417.979,165.07,416.193,165.964,416.193,167.065z"/>
			</g>
		</g>
	</g>
</g>
</svg>
